<svg width="48" height="48" viewBox="0 0 48 48" fill="none" xmlns="http://www.w3.org/2000/svg">
<path d="M6 8C6 7.46957 6.21071 6.96086 6.58579 6.58579C6.96086 6.21071 7.46957 6 8 6H14C14.5304 6 15.0391 6.21071 15.4142 6.58579C15.7893 6.96086 16 7.46957 16 8V14C16 14.5304 15.7893 15.0391 15.4142 15.4142C15.0391 15.7893 14.5304 16 14 16H8C7.46957 16 6.96086 15.7893 6.58579 15.4142C6.21071 15.0391 6 14.5304 6 14V8Z" fill="black"/>
<path d="M6 21C6 20.4696 6.21071 19.9609 6.58579 19.5858C6.96086 19.2107 7.46957 19 8 19H14C14.5304 19 15.0391 19.2107 15.4142 19.5858C15.7893 19.9609 16 20.4696 16 21V27C16 27.5304 15.7893 28.0391 15.4142 28.4142C15.0391 28.7893 14.5304 29 14 29H8C7.46957 29 6.96086 28.7893 6.58579 28.4142C6.21071 28.0391 6 27.5304 6 27V21Z" fill="black"/>
<path d="M6 34C6 33.4696 6.21071 32.9609 6.58579 32.5858C6.96086 32.2107 7.46957 32 8 32H14C14.5304 32 15.0391 32.2107 15.4142 32.5858C15.7893 32.9609 16 33.4696 16 34V40C16 40.5304 15.7893 41.0391 15.4142 41.4142C15.0391 41.7893 14.5304 42 14 42H8C7.46957 42 6.96086 41.7893 6.58579 41.4142C6.21071 41.0391 6 40.5304 6 40V34Z" fill="black"/>
<path d="M19 8C19 7.46957 19.2107 6.96086 19.5858 6.58579C19.9609 6.21071 20.4696 6 21 6H27C27.5304 6 28.0391 6.21071 28.4142 6.58579C28.7893 6.96086 29 7.46957 29 8V14C29 14.5304 28.7893 15.0391 28.4142 15.4142C28.0391 15.7893 27.5304 16 27 16H21C20.4696 16 19.9609 15.7893 19.5858 15.4142C19.2107 15.0391 19 14.5304 19 14V8Z" fill="black"/>
<path d="M19 21C19 20.4696 19.2107 19.9609 19.5858 19.5858C19.9609 19.2107 20.4696 19 21 19H27C27.5304 19 28.0391 19.2107 28.4142 19.5858C28.7893 19.9609 29 20.4696 29 21V27C29 27.5304 28.7893 28.0391 28.4142 28.4142C28.0391 28.7893 27.5304 29 27 29H21C20.4696 29 19.9609 28.7893 19.5858 28.4142C19.2107 28.0391 19 27.5304 19 27V21Z" fill="black"/>
<path d="M19 34C19 33.4696 19.2107 32.9609 19.5858 32.5858C19.9609 32.2107 20.4696 32 21 32H27C27.5304 32 28.0391 32.2107 28.4142 32.5858C28.7893 32.9609 29 33.4696 29 34V40C29 40.5304 28.7893 41.0391 28.4142 41.4142C28.0391 41.7893 27.5304 42 27 42H21C20.4696 42 19.9609 41.7893 19.5858 41.4142C19.2107 41.0391 19 40.5304 19 40V34Z" fill="black"/>
<path d="M32 8C32 7.46957 32.2107 6.96086 32.5858 6.58579C32.9609 6.21071 33.4696 6 34 6H40C40.5304 6 41.0391 6.21071 41.4142 6.58579C41.7893 6.96086 42 7.46957 42 8V14C42 14.5304 41.7893 15.0391 41.4142 15.4142C41.0391 15.7893 40.5304 16 40 16H34C33.4696 16 32.9609 15.7893 32.5858 15.4142C32.2107 15.0391 32 14.5304 32 14V8Z" fill="black"/>
<path d="M32 21C32 20.4696 32.2107 19.9609 32.5858 19.5858C32.9609 19.2107 33.4696 19 34 19H40C40.5304 19 41.0391 19.2107 41.4142 19.5858C41.7893 19.9609 42 20.4696 42 21V27C42 27.5304 41.7893 28.0391 41.4142 28.4142C41.0391 28.7893 40.5304 29 40 29H34C33.4696 29 32.9609 28.7893 32.5858 28.4142C32.2107 28.0391 32 27.5304 32 27V21Z" fill="black"/>
<path d="M32 34C32 33.4696 32.2107 32.9609 32.5858 32.5858C32.9609 32.2107 33.4696 32 34 32H40C40.5304 32 41.0391 32.2107 41.4142 32.5858C41.7893 32.9609 42 33.4696 42 34V40C42 40.5304 41.7893 41.0391 41.4142 41.4142C41.0391 41.7893 40.5304 42 40 42H34C33.4696 42 32.9609 41.7893 32.5858 41.4142C32.2107 41.0391 32 40.5304 32 40V34Z" fill="black"/>
</svg>
